<?xml version="1.0" encoding="utf-8"?>
<!-- Generator: Adobe Illustrator 21.0.0, SVG Export Plug-In . SVG Version: 6.00 Build 0)  -->
<svg version="1.1" id="Layer_1" xmlns="http://www.w3.org/2000/svg" xmlns:xlink="http://www.w3.org/1999/xlink" x="0px" y="0px"
	 viewBox="0 0 1417.3 793.7" style="enable-background:new 0 0 1417.3 793.7;" xml:space="preserve">
<style type="text/css">
	.st0{fill-rule:evenodd;clip-rule:evenodd;fill:#82B0E4;}
	.st1{fill-rule:evenodd;clip-rule:evenodd;fill:#222B66;}
	.st2{fill:#82B0E4;}
	.st3{fill-rule:evenodd;clip-rule:evenodd;fill:#35448C;}
	.st4{fill-rule:evenodd;clip-rule:evenodd;fill:#FFFFFF;}
	.st5{fill-rule:evenodd;clip-rule:evenodd;fill:#E1EEFC;}
</style>
<g>
	<polygon class="st0" points="0,777 1417.3,777 1417.3,789.1 0,789.1 0,777 	"/>
	<path class="st1" d="M586.6,10.7h748.3c42,0,76.4,34.4,76.4,76.4v462.6c0,42-34.4,76.4-76.4,76.4H586.6c-42,0-76.4-34.4-76.4-76.4
		V87.1C510.2,45.1,544.6,10.7,586.6,10.7L586.6,10.7z"/>
	<path class="st2" d="M586.6,4.6h748.3c22.7,0,43.3,9.3,58.2,24.2c14.9,14.9,24.2,35.6,24.2,58.2v462.6c0,22.7-9.3,43.3-24.2,58.2
		c-14.9,14.9-35.6,24.2-58.2,24.2H586.6c-22.7,0-43.3-9.3-58.2-24.2c-14.9-14.9-24.2-35.6-24.2-58.2V87.1c0-22.7,9.3-43.3,24.2-58.2
		C543.3,13.9,563.9,4.6,586.6,4.6L586.6,4.6z M1334.9,16.7H586.6c-19.4,0-37,7.9-49.7,20.7c-12.8,12.8-20.7,30.4-20.7,49.7v462.6
		c0,19.4,7.9,37,20.7,49.7c12.8,12.8,30.4,20.7,49.7,20.7h748.3c19.3,0,36.9-7.9,49.7-20.7c12.8-12.8,20.7-30.4,20.7-49.7V87.1
		c0-19.3-7.9-37-20.7-49.7C1371.8,24.6,1354.2,16.7,1334.9,16.7L1334.9,16.7z"/>
	<path class="st3" d="M1411.3,493.4v56.3c0,42-34.4,76.4-76.4,76.4H586.6c-42,0-76.4-34.4-76.4-76.4v-56.3H1411.3L1411.3,493.4z"/>
	<path class="st2" d="M1417.3,493.4v56.3c0,22.7-9.3,43.3-24.2,58.2c-14.9,14.9-35.6,24.2-58.2,24.2H586.6
		c-22.7,0-43.3-9.3-58.2-24.2c-14.9-14.9-24.2-35.6-24.2-58.2v-56.3c0-3.3,2.7-6,6-6h901.1C1414.6,487.4,1417.3,490.1,1417.3,493.4
		L1417.3,493.4z M1405.3,549.7v-50.3H516.2v50.3c0,19.4,7.9,36.9,20.7,49.7c12.8,12.8,30.4,20.7,49.7,20.7h748.3
		c19.3,0,36.9-7.9,49.7-20.7C1397.3,586.7,1405.3,569.1,1405.3,549.7L1405.3,549.7z"/>
	<path class="st3" d="M697,783h531c2.2,0,4-1.8,4-4v-32.2c0-2.2-1.8-4-4-4h-62.4c-49.1-17.7-85.2-62.7-89.9-116.7h-81H849.4
		c-4.7,54-40.8,99-89.9,116.7H697c-2.2,0-4,1.8-4,4V779C693,781.2,694.8,783,697,783L697,783z"/>
	<path class="st2" d="M699,777h527v-28.2h-60.4c-0.9,0-1.8-0.2-2.6-0.6c-25.7-9.4-47.9-25.9-64.2-47.1c-15.1-19.6-25.2-43.2-28.5-69
		H854.8c-3.3,25.8-13.4,49.4-28.5,69c-16.5,21.4-38.9,38-64.8,47.3c-0.7,0.2-1.4,0.4-2,0.4v0H699V777L699,777z M1228,789.1H697
		c-2.8,0-5.3-1.1-7.1-2.9v0c-1.8-1.8-2.9-4.3-2.9-7.1v-32.2c0-2.8,1.1-5.3,2.9-7.1c1.8-1.8,4.3-2.9,7.1-2.9h61.4
		c23.3-8.6,43.4-23.6,58.3-42.9c14.8-19.2,24.3-42.6,26.6-68.1c0.2-3.1,2.8-5.6,6-5.6h226.3c3.1,0,5.7,2.4,6,5.5
		c2.2,25.6,11.8,49,26.6,68.2c14.9,19.3,35,34.4,58.3,42.9h61.4c2.5,0,4.8,0.9,6.6,2.5c0.2,0.1,0.3,0.3,0.5,0.5c1.8,1.8,3,4.3,3,7.1
		V779c0,2.8-1.1,5.3-3,7.1l0,0C1233.3,787.9,1230.8,789.1,1228,789.1L1228,789.1z"/>
	<path class="st1" d="M840.6,678.5h243.9c-7.2-14.2-12.1-29.8-14.2-46.3H854.8C852.7,648.6,847.8,664.2,840.6,678.5L840.6,678.5z"/>
	<polygon class="st2" points="759.5,736.8 921.6,736.8 921.6,748.8 759.5,748.8 759.5,736.8 	"/>
	<polygon class="st2" points="1165.6,748.8 1051.2,748.8 1051.2,736.8 1165.6,736.8 1165.6,748.8 	"/>
	<polygon class="st2" points="990.8,748.8 950.6,748.8 950.6,736.8 990.8,736.8 990.8,748.8 	"/>
	<path class="st4" d="M964.7,594c18.9,0,34.2-15.3,34.2-34.2c0-18.9-15.3-34.2-34.2-34.2c-18.9,0-34.2,15.3-34.2,34.2
		C930.5,578.7,945.8,594,964.7,594L964.7,594z"/>
	<polygon class="st2" points="910.3,354.6 1007.7,354.6 1007.7,366.6 910.3,366.6 910.3,354.6 	"/>
	<polygon class="st2" points="910.3,233.9 1245.1,233.9 1245.1,246 910.3,246 910.3,233.9 	"/>
	<polygon class="st2" points="910.3,294.2 1100.2,294.2 1100.2,306.3 910.3,306.3 910.3,294.2 	"/>
	<polygon class="st2" points="910.3,173.6 1245.1,173.6 1245.1,185.7 910.3,185.7 910.3,173.6 	"/>
	<path class="st3" d="M344.8,104.1h400.5c18.2,0,33.1,14.9,33.1,33.1v225.8c0,18.2-14.9,33.1-33.1,33.1h-51.3v57.1l-99-57.1H344.8
		c-18.2,0-33.1-14.9-33.1-33.1V137.1C311.7,118.9,326.6,104.1,344.8,104.1L344.8,104.1z"/>
	<path class="st2" d="M344.8,98h400.5c10.8,0,20.5,4.4,27.6,11.5c7.1,7.1,11.5,16.9,11.5,27.6v225.8c0,10.8-4.4,20.5-11.5,27.6
		c-7.1,7.1-16.9,11.5-27.6,11.5h-45.3v51.1c0,3.3-2.7,6-6,6c-1.3,0-2.5-0.4-3.5-1.1l-97-56H344.8c-10.8,0-20.5-4.4-27.6-11.5
		c-7.1-7.1-11.5-16.9-11.5-27.6V137.1c0-10.8,4.4-20.5,11.5-27.6C324.2,102.4,334,98,344.8,98L344.8,98z M745.2,110.1H344.8
		c-7.4,0-14.2,3-19.1,7.9c-4.9,4.9-8,11.7-8,19.1v225.8c0,7.4,3,14.2,8,19.1c4.9,4.9,11.7,8,19.1,8h250.2v0c1,0,2,0.3,3,0.8
		l89.9,51.9V396c0-3.3,2.7-6,6-6h51.3c7.4,0,14.2-3,19.1-8c4.9-4.9,8-11.7,8-19.1V137.1c0-7.4-3-14.2-8-19.1
		C759.4,113.1,752.7,110.1,745.2,110.1L745.2,110.1z"/>
	<path class="st5" d="M438.4,219.8c15.6,0,28.2,12.6,28.2,28.2c0,15.6-12.6,28.2-28.2,28.2c-15.6,0-28.2-12.6-28.2-28.2
		C410.3,232.4,422.9,219.8,438.4,219.8L438.4,219.8z"/>
	<path class="st5" d="M545,219.8c15.6,0,28.2,12.6,28.2,28.2c0,15.6-12.6,28.2-28.2,28.2c-15.6,0-28.2-12.6-28.2-28.2
		C516.8,232.4,529.5,219.8,545,219.8L545,219.8z"/>
	<path class="st5" d="M651.6,219.8c15.5,0,28.2,12.6,28.2,28.2c0,15.6-12.6,28.2-28.2,28.2c-15.6,0-28.2-12.6-28.2-28.2
		C623.4,232.4,636,219.8,651.6,219.8L651.6,219.8z"/>
	<path class="st1" d="M367.6,561.8c-6.2,94.3-72,197.1-180.6,197.1C78.4,758.9,12.6,656.2,6.4,561.8H367.6L367.6,561.8z"/>
	<path class="st2" d="M373.6,562.6c-3.5,51.8-24.6,106.1-60.5,145.3c-31.4,34.2-74,57-126.1,57c-52.1,0-94.8-22.8-126.1-57
		c-36-39.3-57.1-93.8-60.5-145.7c-0.2-3.3,2.3-6.2,5.6-6.4l0.4,0v0h361.2c3.3,0,6,2.7,6,6C373.7,562.1,373.7,562.4,373.6,562.6
		L373.6,562.6z M304.3,699.8c32.7-35.7,52.4-84.5,56.8-132H12.9c4.5,47.4,24.2,96.3,56.8,132c29.2,31.8,68.8,53.1,117.2,53.1
		C235.5,752.9,275.1,731.6,304.3,699.8L304.3,699.8z"/>
	<path class="st2" d="M394.1,596h14.2c5.5,0,10.8,0.7,15.6,2c11.2,3,20.4,9.3,26.8,17.8c6.4,8.5,9.9,19.2,9.9,31
		c0,5.5-0.8,11.2-2.3,17.1c-4.8,17.9-16.4,34.1-31.2,45.8c-14.9,11.7-33.1,19-51.1,19h-45.3v-12.1h45.3c15.2,0,30.8-6.3,43.6-16.4
		c12.9-10.2,22.9-24.1,27-39.4c1.3-4.8,1.9-9.5,1.9-14c0-9.2-2.7-17.4-7.5-23.8c-4.8-6.4-11.7-11.1-20.3-13.4c-3.8-1-8-1.6-12.5-1.6
		h-14.2V596L394.1,596z"/>
	<path class="st3" d="M50.3,674.7c23.3,4.9,47.9,7.5,73.9,7.5c98.4,0,177.5-37.5,233.7-92.3c-7.7,40.2-26.1,79.8-53.7,109.9
		c-29.2,31.8-68.8,53.1-117.2,53.1c-48.4,0-88.1-21.2-117.2-53.1C62.7,692,56.1,683.6,50.3,674.7L50.3,674.7z"/>
	<path class="st2" d="M111.4,512.1c-16.8-34.3-6.3-50.9,3.7-66.7c9.1-14.4,17.8-28.1-6.4-61.1l9.7-7.1c29.1,39.6,18.3,56.7,6.9,74.7
		c-8.3,13.1-16.9,26.8-3.1,55L111.4,512.1L111.4,512.1z"/>
	<path class="st2" d="M181.6,520.1c-4.9-10.3-8.9-19.6-10.8-29.7c-1.9-10.3-1.6-21.1,2.5-33.8c2.6-8,5.6-15.2,8.5-22.3
		c11.2-26.7,21.6-51.3-11.2-85.7l8.7-8.3c38.2,40.1,26.4,68.2,13.6,98.6c-3,7.1-6,14.2-8.2,21.2c-3.4,10.6-3.7,19.5-2.1,27.9
		c1.6,8.7,5.3,17.2,9.9,26.7L181.6,520.1L181.6,520.1z"/>
	<path class="st2" d="M242.3,512.8c-16.4-24.6-12-37.8-5.4-57.4c3.1-9.3,6.8-20.2,8.5-35.1l12,1.4c-1.8,16-5.7,27.7-9,37.6
		c-5.4,16.3-9.1,27.2,4.1,46.9L242.3,512.8L242.3,512.8z"/>
</g>
</svg>
