<?xml version="1.0" encoding="UTF-8"?>
<svg width="42px" height="48px" viewBox="0 0 42 48" version="1.1" xmlns="http://www.w3.org/2000/svg" xmlns:xlink="http://www.w3.org/1999/xlink">
    <title>map-blue-icon备份 12</title>
    <defs>
        <linearGradient x1="0%" y1="50%" x2="100%" y2="50%" id="linearGradient-1">
            <stop stop-color="#1FA5E3" offset="0%"></stop>
            <stop stop-color="#23DEF6" offset="100%"></stop>
        </linearGradient>
    </defs>
    <g id="页面-1" stroke="none" stroke-width="1" fill="none" fill-rule="evenodd">
        <g id="map-blue-icon备份-12" transform="translate(0.2154, 0)" fill="url(#linearGradient-1)" stroke="#FFFFFF">
            <path d="M36.5692194,0.5 C37.8118601,0.5 38.9368601,1.00367966 39.7511999,1.81801948 C40.5655397,2.63235931 41.0692194,3.75735931 41.0692194,5 L41.0692194,33.1132487 C41.0692194,33.9170962 40.8547956,34.6904129 40.4663337,35.3632487 C40.0778718,36.0360844 39.5153718,36.6084392 38.8192194,37.010363 L23.0346097,46.1236116 C22.3384573,46.5255354 21.5615335,46.7264973 20.7846097,46.7264973 C20.0076859,46.7264973 19.2307621,46.5255354 18.5346097,46.1236116 L2.75,37.010363 C2.05384758,36.6084392 1.49134758,36.0360844 1.10288568,35.3632487 C0.714423789,34.6904129 0.5,33.9170962 0.5,33.1132487 L0.5,5 C0.5,3.75735931 1.00367966,2.63235931 1.81801948,1.81801948 C2.63235931,1.00367966 3.75735931,0.5 5,0.5 Z" id="多边形"></path>
        </g>
    </g>
</svg>