<svg width="507" height="51" viewBox="0 0 507 51" fill="none" xmlns="http://www.w3.org/2000/svg">
<g id="Group 5983">
<g id="Group 5957">
<path id="Vector" d="M507 51H36.5536C28.857 51 21.6131 45.75 16.6761 36.6L0 6" fill="url(#paint0_linear_249_625)" fill-opacity="0.9"/>
<path id="Vector_2" d="M507 43C507 45.2091 505.209 47 503 47H30.8933C24.6452 47 18.7338 42.49 14.7367 34.7L0 6H503C505.209 6 507 7.79086 507 10V43Z" fill="url(#paint1_linear_249_625)"/>
<g id="Vector_3">
<path d="M494.832 46.9148H35.8652C29.842 46.9148 24.1433 44.0723 20.2901 39.1625L6.08398 21.0739" stroke="url(#paint2_radial_249_625)" stroke-width="1.5" stroke-miterlimit="10"/>
<path d="M494.832 46.9148H35.8652C29.842 46.9148 24.1433 44.0723 20.2901 39.1625L6.08398 21.0739" stroke="url(#paint3_radial_249_625)" stroke-width="1.5" stroke-miterlimit="10"/>
</g>
<g id="Group 5953">
<g id="Subtract" filter="url(#filter0_d_249_625)">
<path fill-rule="evenodd" clip-rule="evenodd" d="M51.2153 29.9997L58.2862 24.0001L51.2153 18.0006V14.0001L63.001 24.0001L51.2153 34.0001V29.9997Z" fill="url(#paint4_linear_249_625)"/>
</g>
<g id="Polygon 6" filter="url(#filter1_d_249_625)">
<path d="M55.9287 24.001L48.8573 29.7748L48.8573 18.2272L55.9287 24.001Z" fill="url(#paint5_linear_249_625)"/>
</g>
<g id="Ellipse 2100" filter="url(#filter2_d_249_625)">
<ellipse cx="44.1429" cy="24.0015" rx="3.14286" ry="3.33351" fill="url(#paint6_linear_249_625)"/>
</g>
</g>
<!-- <path id="Union" fill-rule="evenodd" clip-rule="evenodd" d="M434.884 30L433.256 35H430L431.628 30H434.884ZM467.442 30L465.814 35H462.559L464.187 30H467.442ZM441.396 30H438.14L436.512 35H439.768L441.396 30ZM473.954 30L472.326 35H469.07L470.698 30H473.954ZM447.907 30H444.651L443.023 35H446.279L447.907 30ZM480.466 30L478.838 35H475.582L477.21 30H480.466ZM454.418 30H451.162L449.534 35H452.79L454.418 30ZM486.976 30L485.348 35H482.093L483.72 30H486.976ZM460.93 30H457.674L456.046 35H459.302L460.93 30ZM493.488 30L491.86 35H488.604L490.232 30H493.488ZM498.372 35L500 30H496.744L495.116 35H498.372Z" fill="#0C2F37" fill-opacity="0.2"/> -->
</g>
</g>
<defs>
<filter id="filter0_d_249_625" x="37.2153" y="0.0001297" width="39.7856" height="48" filterUnits="userSpaceOnUse" color-interpolation-filters="sRGB">
<feFlood flood-opacity="0" result="BackgroundImageFix"/>
<feColorMatrix in="SourceAlpha" type="matrix" values="0 0 0 0 0 0 0 0 0 0 0 0 0 0 0 0 0 0 127 0" result="hardAlpha"/>
<feOffset/>
<feGaussianBlur stdDeviation="7"/>
<feComposite in2="hardAlpha" operator="out"/>
<feColorMatrix type="matrix" values="0 0 0 0 0 0 0 0 0 0.76 0 0 0 0 1 0 0 0 0.5 0"/>
<feBlend mode="normal" in2="BackgroundImageFix" result="effect1_dropShadow_249_625"/>
<feBlend mode="normal" in="SourceGraphic" in2="effect1_dropShadow_249_625" result="shape"/>
</filter>
<filter id="filter1_d_249_625" x="34.8574" y="4.2272" width="35.0713" height="39.5476" filterUnits="userSpaceOnUse" color-interpolation-filters="sRGB">
<feFlood flood-opacity="0" result="BackgroundImageFix"/>
<feColorMatrix in="SourceAlpha" type="matrix" values="0 0 0 0 0 0 0 0 0 0 0 0 0 0 0 0 0 0 127 0" result="hardAlpha"/>
<feOffset/>
<feGaussianBlur stdDeviation="7"/>
<feComposite in2="hardAlpha" operator="out"/>
<feColorMatrix type="matrix" values="0 0 0 0 0 0 0 0 0 0.76 0 0 0 0 1 0 0 0 0.5 0"/>
<feBlend mode="normal" in2="BackgroundImageFix" result="effect1_dropShadow_249_625"/>
<feBlend mode="normal" in="SourceGraphic" in2="effect1_dropShadow_249_625" result="shape"/>
</filter>
<filter id="filter2_d_249_625" x="27" y="6.66797" width="34.2856" height="34.667" filterUnits="userSpaceOnUse" color-interpolation-filters="sRGB">
<feFlood flood-opacity="0" result="BackgroundImageFix"/>
<feColorMatrix in="SourceAlpha" type="matrix" values="0 0 0 0 0 0 0 0 0 0 0 0 0 0 0 0 0 0 127 0" result="hardAlpha"/>
<feOffset/>
<feGaussianBlur stdDeviation="7"/>
<feComposite in2="hardAlpha" operator="out"/>
<feColorMatrix type="matrix" values="0 0 0 0 0 0 0 0 0 0.76 0 0 0 0 1 0 0 0 0.5 0"/>
<feBlend mode="normal" in2="BackgroundImageFix" result="effect1_dropShadow_249_625"/>
<feBlend mode="normal" in="SourceGraphic" in2="effect1_dropShadow_249_625" result="shape"/>
</filter>
<linearGradient id="paint0_linear_249_625" x1="66.5" y1="0.107142" x2="63.5372" y2="36.249" gradientUnits="userSpaceOnUse">
<stop stop-color="#24E1F7" stop-opacity="0"/>
<stop offset="1" stop-color="#3F85EF"/>
</linearGradient>
<linearGradient id="paint1_linear_249_625" x1="166" y1="132.776" x2="156.697" y2="26.6142" gradientUnits="userSpaceOnUse">
<stop offset="0.458333" stop-color="#A2D3F8"/>
<stop offset="1" stop-color="#ADE2FF" stop-opacity="0"/>
</linearGradient>
<radialGradient id="paint2_radial_249_625" cx="0" cy="0" r="1" gradientUnits="userSpaceOnUse" gradientTransform="translate(149.058 42.0695) rotate(-174.373) scale(148.251 3128.65)">
<stop stop-color="#3DDCFF"/>
<stop offset="1" stop-color="#88DBFF" stop-opacity="0"/>
</radialGradient>
<radialGradient id="paint3_radial_249_625" cx="0" cy="0" r="1" gradientUnits="userSpaceOnUse" gradientTransform="translate(79.092 46.9147) rotate(-1.13621) scale(352.941 19.9899)">
<stop stop-color="#93F8FF" stop-opacity="0.63"/>
<stop offset="1" stop-color="#88DBFF" stop-opacity="0"/>
</radialGradient>
<linearGradient id="paint4_linear_249_625" x1="57.1082" y1="14.0001" x2="57.1082" y2="34.0001" gradientUnits="userSpaceOnUse">
<stop offset="0.458333" stop-color="white"/>
<stop offset="1" stop-color="#ADE2FF"/>
</linearGradient>
<linearGradient id="paint5_linear_249_625" x1="55.9287" y1="24.001" x2="46.5001" y2="24.001" gradientUnits="userSpaceOnUse">
<stop offset="0.458333" stop-color="white"/>
<stop offset="1" stop-color="#ADE2FF"/>
</linearGradient>
<linearGradient id="paint6_linear_249_625" x1="44.1429" y1="20.668" x2="44.1429" y2="27.335" gradientUnits="userSpaceOnUse">
<stop offset="0.458333" stop-color="white"/>
<stop offset="1" stop-color="#ADE2FF"/>
</linearGradient>
</defs>
</svg>
