{
  "scene": 0,
  "asset": { "generator": "ImageToStl.com", "version": "2.0" },
  "scenes": [{ "name": "Scene", "nodes": [0] }],
  "nodes": [
    { "name": "Node0", "children": [1, 2] },
    { "name": "Node1", "mesh": 0 },
    { "name": "Node2", "mesh": 1 }
  ],
  "materials": [
    {
      "name": "Material",
      "pbrMetallicRoughness": {
        "baseColorFactor": [0.063721, 0.063721, 0.063721, 1.0],
        "metallicFactor": 0.04386,
        "roughnessFactor": 0.75
      },
      "emissiveFactor": [0.0, 0.0, 0.0],
      "doubleSided": true
    },
    {
      "name": "Material.001",
      "pbrMetallicRoughness": {
        "baseColorFactor": [0.8, 0.8, 0.8, 1.0],
        "metallicFactor": 0.0,
        "roughnessFactor": 0.75
      },
      "emissiveFactor": [0.0, 0.0, 0.0],
      "doubleSided": true
    }
  ],
  "meshes": [
    {
      "name": "Mesh0",
      "primitives": [
        {
          "indices": 2,
          "material": 0,
          "attributes": { "POSITION": 0, "NORMAL": 1 }
        }
      ]
    },
    {
      "name": "Mesh0",
      "primitives": [
        {
          "indices": 6,
          "material": 1,
          "attributes": { "POSITION": 3, "NORMAL": 4, "TEXCOORD_0": 5 }
        }
      ]
    }
  ],
  "accessors": [
    {
      "bufferView": 0,
      "componentType": 5126,
      "count": 4,
      "type": "VEC3",
      "min": [-16.54875, -9.209969, -0.20690688],
      "max": [8.962208, 16.30099, -0.20690688]
    },
    { "bufferView": 1, "componentType": 5126, "count": 4, "type": "VEC3" },
    { "bufferView": 2, "componentType": 5123, "count": 6, "type": "SCALAR" },
    {
      "bufferView": 3,
      "componentType": 5126,
      "count": 3600,
      "type": "VEC3",
      "min": [-3.2304115, -4.194558, -0.15609097],
      "max": [3.2360914, 4.191665, 1.7270428]
    },
    { "bufferView": 4, "componentType": 5126, "count": 3600, "type": "VEC3" },
    { "bufferView": 5, "componentType": 5126, "count": 3600, "type": "VEC2" },
    { "bufferView": 6, "componentType": 5123, "count": 62658, "type": "SCALAR" }
  ],
  "bufferViews": [
    { "target": 34962, "buffer": 0, "byteLength": 48, "byteOffset": 0 },
    { "target": 34962, "buffer": 0, "byteLength": 48, "byteOffset": 48 },
    { "target": 34963, "buffer": 0, "byteLength": 12, "byteOffset": 96 },
    { "target": 34962, "buffer": 0, "byteLength": 43200, "byteOffset": 108 },
    { "target": 34962, "buffer": 0, "byteLength": 43200, "byteOffset": 43308 },
    { "target": 34962, "buffer": 0, "byteLength": 28800, "byteOffset": 86508 },
    { "target": 34963, "buffer": 0, "byteLength": 125316, "byteOffset": 115308 }
  ],
  "buffers": [
    {
      "byteLength": 240624,
      "uri": "data:application/octet-stream;base64,"
    }
  ]
}
